# xmcd
#
# Track frame offsets:
#	150
#	35125
#	51283
#	82070
#	99035
#	146453
#
# Disc length: 2278 seconds
#
# Revision: 1
# Processed by: cddbd v1.5PL3 Copyright (c) Steve Scherf et al.
# Submitted via: CDex 1.50Beta5
#
DISCID=4a08e406
DTITLE=Die In Cries - Nothingness To Revolution
DYEAR=1900
DGENRE=Rock
TTITLE0=Lazy Calm
TTITLE1=Lamentation
TTITLE2=Noisy Crowd
TTITLE3=Shade Of Rhythm
TTITLE4=Dies In Cries
TTITLE5=Nervous
EXTD=
EXTT0=
EXTT1=
EXTT2=
EXTT3=
EXTT4=
EXTT5=
PLAYORDER=
